<mxfile host="app.diagrams.net" modified="2023-04-20T04:54:12.518Z" agent="Mozilla/5.0 (X11; Linux x86_64) AppleWebKit/537.36 (KHTML, like Gecko) Chrome/112.0.0.0 Safari/537.36" etag="rF9D18Qg8QhfxmPOL_De" version="21.1.7" type="github">
  <diagram id="KASS_JyszIGtR1JOQoC5" name="Page-1">
    <mxGraphModel dx="2067" dy="1913" grid="1" gridSize="10" guides="1" tooltips="1" connect="1" arrows="1" fold="1" page="1" pageScale="1" pageWidth="827" pageHeight="1169" background="#ffffff" math="1" shadow="0">
      <root>
        <mxCell id="0" />
        <mxCell id="1" parent="0" />
        <mxCell id="PkTBSmSXAkz1ON-lmvk_-90" value="" style="edgeStyle=elbowEdgeStyle;rounded=0;orthogonalLoop=1;jettySize=auto;elbow=vertical;html=1;labelBackgroundColor=#FFFFFF;fontSize=21;fontColor=#000000;startArrow=none;startFill=0;endArrow=baseDash;endFill=0;dashed=1;exitX=0.5;exitY=1;exitDx=0;exitDy=0;" parent="1" source="PkTBSmSXAkz1ON-lmvk_-78" edge="1">
          <mxGeometry relative="1" as="geometry">
            <mxPoint x="-26" y="-30" as="targetPoint" />
          </mxGeometry>
        </mxCell>
        <mxCell id="PkTBSmSXAkz1ON-lmvk_-78" value="User" style="rounded=1;whiteSpace=wrap;html=1;shadow=0;glass=0;labelBackgroundColor=none;labelBorderColor=none;sketch=0;fontSize=19;fillColor=#ffe6cc;strokeColor=#d79b00;fillStyle=auto;" parent="1" vertex="1">
          <mxGeometry x="-85" y="-150" width="120" height="60" as="geometry" />
        </mxCell>
        <mxCell id="PkTBSmSXAkz1ON-lmvk_-97" style="edgeStyle=elbowEdgeStyle;rounded=0;orthogonalLoop=1;jettySize=auto;elbow=vertical;html=1;labelBackgroundColor=#FFFFFF;fontSize=21;fontColor=#000000;startArrow=none;startFill=0;endArrow=baseDash;endFill=0;dashed=1;" parent="1" source="PkTBSmSXAkz1ON-lmvk_-79" target="PkTBSmSXAkz1ON-lmvk_-96" edge="1">
          <mxGeometry relative="1" as="geometry">
            <Array as="points">
              <mxPoint x="970" y="180" />
            </Array>
          </mxGeometry>
        </mxCell>
        <mxCell id="PkTBSmSXAkz1ON-lmvk_-79" value="IoT Sensor Node" style="rounded=1;whiteSpace=wrap;html=1;shadow=0;glass=0;labelBackgroundColor=none;labelBorderColor=none;sketch=0;fontSize=19;fillColor=#e1d5e7;strokeColor=#9673a6;" parent="1" vertex="1">
          <mxGeometry x="870" y="-150" width="180" height="60" as="geometry" />
        </mxCell>
        <mxCell id="PkTBSmSXAkz1ON-lmvk_-92" value="" style="edgeStyle=elbowEdgeStyle;rounded=0;orthogonalLoop=1;jettySize=auto;elbow=vertical;html=1;dashed=1;labelBackgroundColor=#FFFFFF;fontSize=21;fontColor=#000000;startArrow=none;startFill=0;endArrow=baseDash;endFill=0;" parent="1" source="PkTBSmSXAkz1ON-lmvk_-80" target="PkTBSmSXAkz1ON-lmvk_-82" edge="1">
          <mxGeometry relative="1" as="geometry">
            <Array as="points">
              <mxPoint x="550" />
            </Array>
          </mxGeometry>
        </mxCell>
        <mxCell id="PkTBSmSXAkz1ON-lmvk_-80" value="Gateway" style="rounded=1;html=1;shadow=0;glass=0;labelBackgroundColor=none;labelBorderColor=none;sketch=0;fontSize=19;whiteSpace=wrap;fillColor=#f8cecc;strokeColor=#b85450;" parent="1" vertex="1">
          <mxGeometry x="450" y="-150" width="200" height="60" as="geometry" />
        </mxCell>
        <mxCell id="PkTBSmSXAkz1ON-lmvk_-83" style="edgeStyle=elbowEdgeStyle;rounded=0;orthogonalLoop=1;jettySize=auto;elbow=vertical;html=1;entryX=0;entryY=0.25;entryDx=0;entryDy=0;labelBackgroundColor=#FFFFFF;fontSize=21;fontColor=#000000;startArrow=none;startFill=0;endArrow=classic;endFill=1;" parent="1" source="PkTBSmSXAkz1ON-lmvk_-81" target="PkTBSmSXAkz1ON-lmvk_-82" edge="1">
          <mxGeometry relative="1" as="geometry" />
        </mxCell>
        <mxCell id="PkTBSmSXAkz1ON-lmvk_-118" value="&amp;nbsp; `\beta, N_1`&amp;nbsp;&amp;nbsp;" style="edgeLabel;html=1;align=center;verticalAlign=middle;resizable=0;points=[];fontSize=21;fontColor=#000000;labelBorderColor=default;labelBackgroundColor=#FFB366;" parent="PkTBSmSXAkz1ON-lmvk_-83" vertex="1" connectable="0">
          <mxGeometry x="-0.0961" y="-2" relative="1" as="geometry">
            <mxPoint as="offset" />
          </mxGeometry>
        </mxCell>
        <mxCell id="PkTBSmSXAkz1ON-lmvk_-91" value="" style="edgeStyle=elbowEdgeStyle;rounded=0;orthogonalLoop=1;jettySize=auto;elbow=vertical;html=1;dashed=1;labelBackgroundColor=#FFFFFF;fontSize=21;fontColor=#000000;startArrow=none;startFill=0;endArrow=baseDash;endFill=0;" parent="1" source="PkTBSmSXAkz1ON-lmvk_-81" target="PkTBSmSXAkz1ON-lmvk_-85" edge="1">
          <mxGeometry relative="1" as="geometry">
            <Array as="points">
              <mxPoint x="55" y="190" />
            </Array>
          </mxGeometry>
        </mxCell>
        <mxCell id="PkTBSmSXAkz1ON-lmvk_-81" value="&lt;blockquote style=&quot;margin: 0 0 0 40px; border: none; padding: 0px;&quot;&gt;Input: `Bio=B_1`&lt;/blockquote&gt;&lt;blockquote style=&quot;margin: 0 0 0 40px; border: none; padding: 0px;&quot;&gt;Compute: `R_N=Z_1\oplusB_1`&lt;/blockquote&gt;&lt;blockquote style=&quot;margin: 0 0 0 40px; border: none; padding: 0px;&quot;&gt;Compute: `K_{UG}^1=Z_2\oplusR_N`&lt;/blockquote&gt;&lt;blockquote style=&quot;margin: 0 0 0 40px; border: none; padding: 0px;&quot;&gt;Compute: `Z_3^\ast=H(B_1,K_{UG}^1,R_N)`&lt;/blockquote&gt;&lt;blockquote style=&quot;margin: 0 0 0 40px; border: none; padding: 0px;&quot;&gt;Validate: `Z_3^\ast == Z_3`&lt;br&gt;Generate:&amp;nbsp; N&lt;sub&gt;1&lt;/sub&gt;&lt;/blockquote&gt;" style="rounded=1;whiteSpace=wrap;html=1;shadow=0;glass=0;labelBackgroundColor=none;labelBorderColor=none;sketch=0;fontSize=19;align=left;fillColor=#cdeb8b;strokeColor=#36393d;" parent="1" vertex="1">
          <mxGeometry x="-200" y="-30" width="360" height="170" as="geometry" />
        </mxCell>
        <mxCell id="PkTBSmSXAkz1ON-lmvk_-93" style="edgeStyle=elbowEdgeStyle;rounded=0;orthogonalLoop=1;jettySize=auto;elbow=vertical;html=1;dashed=1;labelBackgroundColor=#FFFFFF;fontSize=21;fontColor=#000000;startArrow=none;startFill=0;endArrow=baseDash;endFill=0;entryX=0.656;entryY=0.005;entryDx=0;entryDy=0;entryPerimeter=0;" parent="1" source="PkTBSmSXAkz1ON-lmvk_-82" target="PkTBSmSXAkz1ON-lmvk_-86" edge="1">
          <mxGeometry relative="1" as="geometry">
            <mxPoint x="551" y="330" as="targetPoint" />
            <Array as="points">
              <mxPoint x="580" y="260" />
            </Array>
          </mxGeometry>
        </mxCell>
        <mxCell id="PkTBSmSXAkz1ON-lmvk_-82" value="&lt;blockquote style=&quot;margin: 0 0 0 40px; border: none; padding: 0px;&quot;&gt;&lt;font style=&quot;font-size: 21px;&quot;&gt;Identify:&amp;nbsp; &amp;nbsp;`\beta`&lt;/font&gt;&lt;/blockquote&gt;&lt;blockquote style=&quot;margin: 0 0 0 40px; border: none; padding: 0px;&quot;&gt;&lt;span style=&quot;white-space: pre;&quot;&gt; &lt;span style=&quot;white-space: pre;&quot;&gt; &lt;span style=&quot;white-space: pre;&quot;&gt;	&lt;/span&gt;&lt;/span&gt;&lt;/span&gt;`\beta==\beta_{\n\ew}, then`&lt;br&gt;&lt;/blockquote&gt;&lt;blockquote style=&quot;margin: 0 0 0 40px; border: none; padding: 0px;&quot;&gt;&lt;span style=&quot;white-space: pre;&quot;&gt; &lt;span style=&quot;white-space: pre;&quot;&gt; &lt;span style=&quot;white-space: pre;&quot;&gt;	&lt;/span&gt;&lt;/span&gt;&lt;/span&gt;`\beta=\beta_{\n\ew}` and `\beta_{\n\ew}` = New Random Num&lt;br&gt;&lt;/blockquote&gt;&lt;blockquote style=&quot;margin: 0 0 0 40px; border: none; padding: 0px;&quot;&gt;&lt;font style=&quot;font-size: 21px;&quot;&gt;Validate:&amp;nbsp; &amp;nbsp;`N_1`&lt;br&gt;&lt;/font&gt;&lt;font style=&quot;font-size: 21px;&quot;&gt;Generate:&amp;nbsp; `N_2`&lt;/font&gt;&lt;font style=&quot;font-size: 21px;&quot;&gt;&lt;div style=&quot;&quot;&gt;Select:&amp;nbsp; `(C_U, R_U)_{CRP-U}`&lt;/div&gt;&lt;/font&gt;&lt;/blockquote&gt;" style="rounded=1;whiteSpace=wrap;html=1;shadow=0;glass=0;labelBackgroundColor=none;labelBorderColor=none;sketch=0;fontSize=19;align=left;fillColor=#cce5ff;strokeColor=#36393d;" parent="1" vertex="1">
          <mxGeometry x="390" y="-30" width="460" height="230" as="geometry" />
        </mxCell>
        <mxCell id="PkTBSmSXAkz1ON-lmvk_-114" style="edgeStyle=elbowEdgeStyle;rounded=0;orthogonalLoop=1;jettySize=auto;elbow=vertical;html=1;labelBackgroundColor=#FFFFFF;fontSize=21;fontColor=#000000;startArrow=none;startFill=0;endArrow=baseDash;endFill=0;dashed=1;" parent="1" source="PkTBSmSXAkz1ON-lmvk_-85" target="PkTBSmSXAkz1ON-lmvk_-102" edge="1">
          <mxGeometry relative="1" as="geometry">
            <Array as="points">
              <mxPoint x="60" y="660" />
            </Array>
          </mxGeometry>
        </mxCell>
        <mxCell id="PkTBSmSXAkz1ON-lmvk_-85" value="&lt;blockquote style=&quot;margin: 0 0 0 40px; border: none; padding: 0px;&quot;&gt;Validate:&amp;nbsp; `N_2`&lt;br&gt;Compute:&amp;nbsp; `R_U^\prime = P_U (C_U)`&lt;br&gt;Generate:&amp;nbsp; `N_3, V`&lt;br&gt;Compute:&amp;nbsp; VG, VH&lt;br&gt;Compute:&amp;nbsp; `r_1 = V - h(B_1^\prime)_{T96} C_U`&lt;br&gt;Compute:&amp;nbsp; `r_2 = V - h(R_U^\prime)_{T96} C_U`&lt;/blockquote&gt;&lt;blockquote style=&quot;margin: 0 0 0 40px; border: none; padding: 0px;&quot;&gt;Compute: `r_3=H(r_1,r_2,K_{UG}^1,N_3)`&lt;/blockquote&gt;" style="rounded=1;whiteSpace=wrap;html=1;shadow=0;glass=0;labelBackgroundColor=none;labelBorderColor=none;sketch=0;fontSize=21;align=left;fillColor=#f8cecc;gradientColor=#ea6b66;strokeColor=#b85450;" parent="1" vertex="1">
          <mxGeometry x="-200" y="240" width="410" height="220" as="geometry" />
        </mxCell>
        <mxCell id="PkTBSmSXAkz1ON-lmvk_-100" style="edgeStyle=elbowEdgeStyle;rounded=0;orthogonalLoop=1;jettySize=auto;elbow=vertical;html=1;labelBackgroundColor=#FFFFFF;fontSize=21;fontColor=#000000;startArrow=none;startFill=0;endArrow=baseDash;endFill=0;dashed=1;exitX=0.5;exitY=1;exitDx=0;exitDy=0;entryX=0.455;entryY=0.003;entryDx=0;entryDy=0;entryPerimeter=0;" parent="1" source="PkTBSmSXAkz1ON-lmvk_-86" target="PkTBSmSXAkz1ON-lmvk_-99" edge="1">
          <mxGeometry relative="1" as="geometry">
            <mxPoint x="535" y="750" as="targetPoint" />
            <Array as="points">
              <mxPoint x="540" y="710" />
              <mxPoint x="550" y="590" />
            </Array>
            <mxPoint x="535" y="640" as="sourcePoint" />
          </mxGeometry>
        </mxCell>
        <mxCell id="PkTBSmSXAkz1ON-lmvk_-86" value="&lt;blockquote style=&quot;margin: 0 0 0 40px; border: none; padding: 0px;&quot;&gt;Validate:&amp;nbsp; `N_3`&lt;/blockquote&gt;&lt;blockquote style=&quot;margin: 0 0 0 40px; border: none; padding: 0px;&quot;&gt;&lt;span style=&quot;white-space: pre;&quot;&gt; &lt;span style=&quot;white-space: pre;&quot;&gt; &lt;span style=&quot;white-space: pre;&quot;&gt; &lt;span style=&quot;white-space: pre;&quot;&gt;	&lt;/span&gt;&lt;/span&gt;&lt;/span&gt;&lt;/span&gt;VG == `r_1`G + `C_U(\tau_1)`&lt;br&gt;&lt;/blockquote&gt;&lt;blockquote style=&quot;margin: 0 0 0 40px; border: none; padding: 0px;&quot;&gt;&lt;span style=&quot;white-space: pre;&quot;&gt; &lt;span style=&quot;white-space: pre;&quot;&gt; &lt;span style=&quot;white-space: pre;&quot;&gt; &lt;span style=&quot;white-space: pre;&quot;&gt;	&lt;/span&gt;&lt;/span&gt;&lt;/span&gt;&lt;/span&gt;VG == (V - Z`C_U`)G + `C_U`(ZG)&lt;br&gt;&lt;/blockquote&gt;&lt;blockquote style=&quot;margin: 0 0 0 40px; border: none; padding: 0px;&quot;&gt;&lt;span style=&quot;white-space: pre;&quot;&gt; &lt;span style=&quot;white-space: pre;&quot;&gt; &lt;span style=&quot;white-space: pre;&quot;&gt; &lt;span style=&quot;white-space: pre;&quot;&gt;	&lt;/span&gt;&lt;/span&gt;&lt;/span&gt;&lt;/span&gt;VG == VG - Z`C_U`G + Z`C_U`G&lt;br&gt;&lt;/blockquote&gt;&lt;blockquote style=&quot;margin: 0 0 0 40px; border: none; padding: 0px;&quot;&gt;&lt;span style=&quot;white-space: pre;&quot;&gt;&lt;span style=&quot;white-space: pre;&quot;&gt; &lt;span style=&quot;white-space: pre;&quot;&gt; &lt;span style=&quot;white-space: pre;&quot;&gt;	&lt;/span&gt;&lt;/span&gt;&lt;/span&gt;&lt;/span&gt;VG == VG (T-C/E-A)&lt;br&gt;&lt;/blockquote&gt;&lt;blockquote style=&quot;margin: 0 0 0 40px; border: none; padding: 0px;&quot;&gt;&lt;span style=&quot;white-space: pre;&quot;&gt; &lt;span style=&quot;white-space: pre;&quot;&gt; &lt;span style=&quot;white-space: pre;&quot;&gt;	&lt;/span&gt;&lt;/span&gt;&lt;/span&gt;VH == `r_2`H + `C_U(\tau_2)`&lt;br&gt;&lt;/blockquote&gt;&lt;blockquote style=&quot;margin: 0 0 0 40px; border: none; padding: 0px;&quot;&gt;&lt;span style=&quot;white-space: pre;&quot;&gt; &lt;span style=&quot;white-space: pre;&quot;&gt; &lt;span style=&quot;white-space: pre;&quot;&gt; &lt;span style=&quot;white-space: pre;&quot;&gt;	&lt;/span&gt;&lt;/span&gt;&lt;/span&gt;&lt;/span&gt;VH == (V - W`C_U`)H + `C_U`(WH)&lt;br&gt;&lt;/blockquote&gt;&lt;blockquote style=&quot;margin: 0 0 0 40px; border: none; padding: 0px;&quot;&gt;&lt;span style=&quot;white-space: pre;&quot;&gt; &lt;span style=&quot;white-space: pre;&quot;&gt; &lt;span style=&quot;white-space: pre;&quot;&gt; &lt;span style=&quot;white-space: pre;&quot;&gt;	&lt;/span&gt;&lt;/span&gt;&lt;/span&gt;&lt;/span&gt;VH == VH - W`C_U`H + W`C_U`H&lt;br&gt;&lt;/blockquote&gt;&lt;blockquote style=&quot;margin: 0 0 0 40px; border: none; padding: 0px;&quot;&gt;&lt;span style=&quot;white-space: pre;&quot;&gt; &lt;span style=&quot;white-space: pre;&quot;&gt; &lt;span style=&quot;white-space: pre;&quot;&gt; &lt;span style=&quot;white-space: pre;&quot;&gt;	&lt;/span&gt;&lt;/span&gt;&lt;/span&gt;&lt;/span&gt;VH == VH (T-C/E-A)&lt;/blockquote&gt;&lt;blockquote style=&quot;margin: 0 0 0 40px; border: none; padding: 0px;&quot;&gt;&lt;span style=&quot;white-space: pre;&quot;&gt; &lt;span style=&quot;white-space: pre;&quot;&gt; &lt;span style=&quot;white-space: pre;&quot;&gt; &lt;span style=&quot;white-space: pre;&quot;&gt;	&lt;/span&gt;&lt;/span&gt;&lt;/span&gt;&lt;/span&gt;`r_3` == H(`r_1,r_2,U[f_u],N_3`)&lt;br&gt;&lt;/blockquote&gt;&lt;blockquote style=&quot;margin: 0 0 0 40px; border: none; padding: 0px;&quot;&gt;Generate:&amp;nbsp; `N_4`&lt;/blockquote&gt;&lt;blockquote style=&quot;margin: 0 0 0 40px; border: none; padding: 0px;&quot;&gt;Select:&amp;nbsp; `(C_{SN}, R_{SN})_{CRP-SN}`&lt;/blockquote&gt;" style="rounded=1;whiteSpace=wrap;html=1;shadow=0;glass=0;labelBackgroundColor=none;labelBorderColor=none;sketch=0;fontSize=21;align=left;fillColor=#e6d0de;gradientColor=#d5739d;strokeColor=#996185;" parent="1" vertex="1">
          <mxGeometry x="290" y="320" width="440" height="320" as="geometry" />
        </mxCell>
        <mxCell id="PkTBSmSXAkz1ON-lmvk_-94" value="" style="endArrow=classic;html=1;rounded=0;labelBackgroundColor=#FFFFFF;fontSize=21;fontColor=#000000;elbow=vertical;" parent="1" edge="1">
          <mxGeometry width="50" height="50" relative="1" as="geometry">
            <mxPoint x="390" y="170" as="sourcePoint" />
            <mxPoint x="50" y="170" as="targetPoint" />
            <Array as="points" />
          </mxGeometry>
        </mxCell>
        <mxCell id="PkTBSmSXAkz1ON-lmvk_-119" value="&amp;nbsp; `N_2, C_U`&amp;nbsp;&amp;nbsp;" style="edgeLabel;html=1;align=center;verticalAlign=middle;resizable=0;points=[];fontSize=21;fontColor=#000000;labelBorderColor=default;labelBackgroundColor=#FFB366;" parent="PkTBSmSXAkz1ON-lmvk_-94" vertex="1" connectable="0">
          <mxGeometry x="-0.11" y="-3" relative="1" as="geometry">
            <mxPoint as="offset" />
          </mxGeometry>
        </mxCell>
        <mxCell id="PkTBSmSXAkz1ON-lmvk_-104" style="edgeStyle=elbowEdgeStyle;rounded=0;orthogonalLoop=1;jettySize=auto;elbow=vertical;html=1;labelBackgroundColor=#FFFFFF;fontSize=21;fontColor=#000000;startArrow=none;startFill=0;endArrow=baseDash;endFill=0;dashed=1;" parent="1" source="PkTBSmSXAkz1ON-lmvk_-96" edge="1">
          <mxGeometry relative="1" as="geometry">
            <Array as="points">
              <mxPoint x="1080" y="870" />
              <mxPoint x="1013" y="900" />
              <mxPoint x="1010" y="960" />
              <mxPoint x="1010" y="920" />
              <mxPoint x="1010" y="890" />
              <mxPoint x="970" y="760" />
            </Array>
            <mxPoint x="1080" y="1140" as="targetPoint" />
          </mxGeometry>
        </mxCell>
        <mxCell id="PkTBSmSXAkz1ON-lmvk_-96" value="&lt;blockquote style=&quot;margin: 0 0 0 40px; border: none; padding: 0px;&quot;&gt;Validate:&amp;nbsp; `N_4`&lt;br&gt;Compute:&amp;nbsp; `R_{SN}^\prime = P_{SN} (C_{SN})`&lt;br&gt;Generate:&amp;nbsp; `N_5, M`&lt;br&gt;Compute:&amp;nbsp; `MF`&lt;br&gt;Compute:&amp;nbsp; `r_4 = M - h(R_{SN}^\prime)_{T96} C_{SN}`&lt;/blockquote&gt;&lt;blockquote style=&quot;margin: 0 0 0 40px; border: none; padding: 0px;&quot;&gt;Compute: `r_5 = H(r_4,K_{SG}^1,N_5)`&lt;/blockquote&gt;" style="rounded=1;whiteSpace=wrap;html=1;shadow=0;glass=0;labelBackgroundColor=none;labelBorderColor=none;sketch=0;fontSize=21;align=left;fillColor=#dae8fc;gradientColor=#7ea6e0;strokeColor=#6c8ebf;" parent="1" vertex="1">
          <mxGeometry x="770" y="510" width="430" height="220" as="geometry" />
        </mxCell>
        <mxCell id="PkTBSmSXAkz1ON-lmvk_-98" value="" style="endArrow=classic;html=1;rounded=0;labelBackgroundColor=#FFFFFF;fontSize=21;fontColor=#000000;elbow=vertical;" parent="1" edge="1">
          <mxGeometry width="50" height="50" relative="1" as="geometry">
            <mxPoint x="732" y="400" as="sourcePoint" />
            <mxPoint x="968" y="400" as="targetPoint" />
            <Array as="points" />
          </mxGeometry>
        </mxCell>
        <mxCell id="PkTBSmSXAkz1ON-lmvk_-123" value="&amp;nbsp; `N_4, C_{SN},\gamma`&amp;nbsp;&amp;nbsp;" style="edgeLabel;html=1;align=center;verticalAlign=middle;resizable=0;points=[];fontSize=21;fontColor=#000000;labelBorderColor=default;labelBackgroundColor=#FFB366;" parent="PkTBSmSXAkz1ON-lmvk_-98" vertex="1" connectable="0">
          <mxGeometry x="-0.0336" y="1" relative="1" as="geometry">
            <mxPoint as="offset" />
          </mxGeometry>
        </mxCell>
        <mxCell id="PkTBSmSXAkz1ON-lmvk_-106" style="edgeStyle=elbowEdgeStyle;rounded=0;orthogonalLoop=1;jettySize=auto;elbow=vertical;html=1;dashed=1;labelBackgroundColor=#FFFFFF;fontSize=21;fontColor=#000000;startArrow=none;startFill=0;endArrow=baseDash;endFill=0;" parent="1" source="PkTBSmSXAkz1ON-lmvk_-99" edge="1">
          <mxGeometry relative="1" as="geometry">
            <mxPoint x="767.5" y="759.5802469135804" as="targetPoint" />
          </mxGeometry>
        </mxCell>
        <mxCell id="PkTBSmSXAkz1ON-lmvk_-108" style="edgeStyle=elbowEdgeStyle;rounded=0;orthogonalLoop=1;jettySize=auto;elbow=vertical;html=1;dashed=1;labelBackgroundColor=#FFFFFF;fontSize=21;fontColor=#000000;startArrow=none;startFill=0;endArrow=baseDash;endFill=0;" parent="1" source="PkTBSmSXAkz1ON-lmvk_-99" edge="1">
          <mxGeometry relative="1" as="geometry">
            <mxPoint x="752.5" y="759.6091954022988" as="targetPoint" />
          </mxGeometry>
        </mxCell>
        <mxCell id="PkTBSmSXAkz1ON-lmvk_-110" style="edgeStyle=elbowEdgeStyle;rounded=0;orthogonalLoop=1;jettySize=auto;elbow=vertical;html=1;dashed=1;labelBackgroundColor=#FFFFFF;fontSize=21;fontColor=#000000;startArrow=none;startFill=0;endArrow=baseDash;endFill=0;" parent="1" source="PkTBSmSXAkz1ON-lmvk_-99" edge="1">
          <mxGeometry relative="1" as="geometry">
            <mxPoint x="752.5" y="759.6091954022988" as="targetPoint" />
          </mxGeometry>
        </mxCell>
        <mxCell id="PkTBSmSXAkz1ON-lmvk_-112" style="edgeStyle=elbowEdgeStyle;rounded=0;orthogonalLoop=1;jettySize=auto;elbow=vertical;html=1;dashed=1;labelBackgroundColor=#FFFFFF;fontSize=21;fontColor=#000000;startArrow=none;startFill=0;endArrow=baseDash;endFill=0;" parent="1" source="PkTBSmSXAkz1ON-lmvk_-99" edge="1">
          <mxGeometry relative="1" as="geometry">
            <mxPoint x="752.5" y="759.6091954022988" as="targetPoint" />
          </mxGeometry>
        </mxCell>
        <mxCell id="PkTBSmSXAkz1ON-lmvk_-116" style="edgeStyle=elbowEdgeStyle;rounded=0;orthogonalLoop=1;jettySize=auto;elbow=vertical;html=1;dashed=1;labelBackgroundColor=#FFFFFF;fontSize=21;fontColor=#000000;startArrow=none;startFill=0;endArrow=baseDash;endFill=0;" parent="1" source="PkTBSmSXAkz1ON-lmvk_-99" edge="1">
          <mxGeometry relative="1" as="geometry">
            <mxPoint x="297.5" y="759.6421052631579" as="targetPoint" />
          </mxGeometry>
        </mxCell>
        <mxCell id="PkTBSmSXAkz1ON-lmvk_-99" value="&lt;blockquote style=&quot;margin: 0 0 0 40px; border: none; padding: 0px;&quot;&gt;Validate:&amp;nbsp; `N_5`&lt;/blockquote&gt;&lt;blockquote style=&quot;margin: 0 0 0 40px; border: none; padding: 0px;&quot;&gt;&lt;span style=&quot;&quot;&gt; &lt;/span&gt;&lt;span style=&quot;white-space: pre;&quot;&gt; &lt;span style=&quot;white-space: pre;&quot;&gt; &lt;span style=&quot;white-space: pre;&quot;&gt; &lt;span style=&quot;white-space: pre;&quot;&gt; &lt;span style=&quot;white-space: pre;&quot;&gt;	&lt;/span&gt;&lt;/span&gt;&lt;/span&gt;&lt;/span&gt;&lt;/span&gt;`MF == r_4F+C_{SN}(\phi)`&lt;/blockquote&gt;&lt;blockquote style=&quot;margin: 0 0 0 40px; border: none; padding: 0px;&quot;&gt;&lt;span style=&quot;&quot;&gt; &lt;/span&gt;&lt;span style=&quot;white-space: pre;&quot;&gt; &lt;span style=&quot;white-space: pre;&quot;&gt; &lt;span style=&quot;white-space: pre;&quot;&gt; &lt;span style=&quot;white-space: pre;&quot;&gt; &lt;span style=&quot;white-space: pre;&quot;&gt;	&lt;/span&gt;&lt;/span&gt;&lt;/span&gt;&lt;/span&gt;&lt;/span&gt;`MF == (M- XC_{SN})F+C_{SN}(XF)`&lt;/blockquote&gt;&lt;blockquote style=&quot;margin: 0 0 0 40px; border: none; padding: 0px;&quot;&gt;&lt;span style=&quot;&quot;&gt; &lt;/span&gt;&lt;span style=&quot;white-space: pre;&quot;&gt; &lt;span style=&quot;white-space: pre;&quot;&gt; &lt;span style=&quot;white-space: pre;&quot;&gt; &lt;span style=&quot;white-space: pre;&quot;&gt;	&lt;/span&gt;&lt;/span&gt;&lt;/span&gt;&lt;/span&gt;`MF == MF-XC_{SN}F+XC_{SN}F`&lt;/blockquote&gt;&lt;blockquote style=&quot;margin: 0 0 0 40px; border: none; padding: 0px;&quot;&gt;&lt;span style=&quot;&quot;&gt; &lt;/span&gt;&lt;span style=&quot;white-space: pre;&quot;&gt; &lt;span style=&quot;white-space: pre;&quot;&gt; &lt;span style=&quot;white-space: pre;&quot;&gt; &lt;span style=&quot;white-space: pre;&quot;&gt; &lt;span style=&quot;white-space: pre;&quot;&gt;	&lt;/span&gt;&lt;/span&gt;&lt;/span&gt;&lt;/span&gt;&lt;/span&gt;`MF == MF`(T - C/E - A)&lt;/blockquote&gt;&lt;blockquote style=&quot;margin: 0 0 0 40px; border: none; padding: 0px;&quot;&gt;&lt;span style=&quot;&quot;&gt; &lt;/span&gt;&lt;span style=&quot;white-space: pre;&quot;&gt; &lt;span style=&quot;white-space: pre;&quot;&gt; &lt;span style=&quot;white-space: pre;&quot;&gt; &lt;span style=&quot;white-space: pre;&quot;&gt; &lt;span style=&quot;white-space: pre;&quot;&gt;	&lt;/span&gt;&lt;/span&gt;&lt;/span&gt;&lt;/span&gt;&lt;/span&gt;`r_5 == H(r_4,N[f_{sn}],N_5)`&lt;br&gt;Generate:&amp;nbsp; `N_6, N_7, \beta_{\n\ew}, \gamma_{\n\ew}`&lt;/blockquote&gt;&lt;blockquote style=&quot;margin: 0 0 0 40px; border: none; padding: 0px;&quot;&gt;Compute: `SK_U = H(U[f_u],U_{ID},\beta)`&lt;br&gt;Compute:&amp;nbsp; `K_1 = H(SK_U,N_6, H(U[f_u]), \beta_{\n\ew})`&lt;/blockquote&gt;&lt;blockquote style=&quot;margin: 0 0 0 40px; border: none; padding: 0px;&quot;&gt;Compute: `SK_{SN} = H(N[f_{sn}],\gamma)`&lt;br&gt;Compute:&amp;nbsp; `K_2 = H(SK_{SN}, N_7, H(N[f_{sn}]), \gamma_{\n\ew})`&lt;/blockquote&gt;&lt;blockquote style=&quot;margin: 0 0 0 40px; border: none; padding: 0px;&quot;&gt;Update: `U[(f_u+1)mod2]=H(U[f_u])`&lt;/blockquote&gt;&lt;blockquote style=&quot;margin: 0 0 0 40px; border: none; padding: 0px;&quot;&gt;Update: `N[(f_{sn}+1)mod2]=H(N(f_{sn}))`&lt;/blockquote&gt;" style="rounded=1;whiteSpace=wrap;html=1;shadow=0;glass=0;labelBackgroundColor=none;labelBorderColor=none;sketch=0;fontSize=21;align=left;fillColor=#d5e8d4;gradientColor=#97d077;strokeColor=#82b366;" parent="1" vertex="1">
          <mxGeometry x="260" y="750" width="550" height="380" as="geometry" />
        </mxCell>
        <mxCell id="PkTBSmSXAkz1ON-lmvk_-101" value="" style="endArrow=classic;html=1;rounded=0;labelBackgroundColor=#FFFFFF;fontSize=21;fontColor=#000000;elbow=vertical;exitX=0.005;exitY=0.835;exitDx=0;exitDy=0;exitPerimeter=0;" parent="1" source="PkTBSmSXAkz1ON-lmvk_-96" edge="1">
          <mxGeometry width="50" height="50" relative="1" as="geometry">
            <mxPoint x="460" y="540" as="sourcePoint" />
            <mxPoint x="510" y="694" as="targetPoint" />
            <Array as="points">
              <mxPoint x="550" y="694" />
              <mxPoint x="540" y="694" />
            </Array>
          </mxGeometry>
        </mxCell>
        <mxCell id="PkTBSmSXAkz1ON-lmvk_-124" value="&amp;nbsp; `N_5, MF, r_4,r_5,f_{sn}`&amp;nbsp;&amp;nbsp;" style="edgeLabel;html=1;align=center;verticalAlign=middle;resizable=0;points=[];fontSize=21;fontColor=#000000;labelBorderColor=default;labelBackgroundColor=#FFB366;" parent="PkTBSmSXAkz1ON-lmvk_-101" vertex="1" connectable="0">
          <mxGeometry x="-0.1243" y="-3" relative="1" as="geometry">
            <mxPoint x="-14" y="5" as="offset" />
          </mxGeometry>
        </mxCell>
        <mxCell id="PkTBSmSXAkz1ON-lmvk_-102" value="&lt;blockquote style=&quot;margin: 0 0 0 40px; border: none; padding: 0px;&quot;&gt;Validate:&amp;nbsp; `N_6`&lt;br&gt;Compute:&amp;nbsp; `SK_U^&#39;=H(R_{SG}^1,U_{ID},\beta)`&lt;/blockquote&gt;&lt;blockquote style=&quot;margin: 0 0 0 40px; border: none; padding: 0px;&quot;&gt;Compute:&amp;nbsp;&lt;span style=&quot;background-color: initial;&quot;&gt;`K_1^&#39; = H(SK_U^&#39;,N_6, H(R_{SG}^1), \beta_{\n\ew})`&lt;br&gt;&lt;/span&gt;Validate:&amp;nbsp; `K_1^&#39; == K_1`&lt;br&gt;&lt;/blockquote&gt;&lt;blockquote style=&quot;margin: 0 0 0 40px; border: none; padding: 0px;&quot;&gt;Update: `K_{UG}^1=H(K_{UG}^1), f_u=(f_u+1)mod2`&lt;/blockquote&gt;&lt;blockquote style=&quot;margin: 0 0 0 40px; border: none; padding: 0px;&quot;&gt;Update: `Z_2 = R_U\oplusK_{UG}^1`&lt;/blockquote&gt;&lt;blockquote style=&quot;margin: 0 0 0 40px; border: none; padding: 0px;&quot;&gt;Update: `Z_3 = H(B_1,K_{UG}^1,R_U)`&lt;/blockquote&gt;&lt;blockquote style=&quot;margin: 0 0 0 40px; border: none; padding: 0px;&quot;&gt;Store:&amp;nbsp; `\beta_{\n\ew}`&lt;br&gt;&lt;/blockquote&gt;" style="rounded=1;whiteSpace=wrap;html=1;shadow=0;glass=0;labelBackgroundColor=none;labelBorderColor=none;sketch=0;fontSize=21;align=left;fillColor=#fad7ac;strokeColor=#b46504;gradientDirection=south;gradientColor=none;" parent="1" vertex="1">
          <mxGeometry x="-310" y="1090" width="550" height="250" as="geometry" />
        </mxCell>
        <mxCell id="PkTBSmSXAkz1ON-lmvk_-103" value="&lt;blockquote style=&quot;margin: 0 0 0 40px; border: none; padding: 0px;&quot;&gt;Validate: `N_7`&lt;/blockquote&gt;&lt;blockquote style=&quot;margin: 0 0 0 40px; border: none; padding: 0px;&quot;&gt;Compute:&amp;nbsp; `SK_{SN}^&#39;=H(R_{SG}^2,\gamma)`&lt;br&gt;&lt;/blockquote&gt;&lt;blockquote style=&quot;margin: 0 0 0 40px; border: none; padding: 0px;&quot;&gt;Compute:&amp;nbsp;`K_2^&#39; = H(SK_{SN}^&#39;,N_7, H(R_{SG}^2), \gamma_{\n\ew})`&lt;br&gt;&lt;/blockquote&gt;&lt;blockquote style=&quot;margin: 0 0 0 40px; border: none; padding: 0px;&quot;&gt;Validate:&amp;nbsp; `K_2^&#39; == K_2`&lt;/blockquote&gt;&lt;blockquote style=&quot;margin: 0 0 0 40px; border: none; padding: 0px;&quot;&gt;Update: `K_{SG}^1=H(K_{SG}^1),f_{sn}=(f_{sn}+1)mod2`&lt;br style=&quot;border-color: var(--border-color);&quot;&gt;Store:&amp;nbsp; `\gamma_{\n\ew}`&lt;br&gt;&lt;/blockquote&gt;" style="rounded=1;whiteSpace=wrap;html=1;shadow=0;glass=0;labelBackgroundColor=none;labelBorderColor=none;sketch=0;fontSize=21;align=left;fillColor=#fff2cc;gradientColor=#ffd966;strokeColor=#d6b656;" parent="1" vertex="1">
          <mxGeometry x="780" y="1140" width="550" height="200" as="geometry" />
        </mxCell>
        <mxCell id="PkTBSmSXAkz1ON-lmvk_-113" value="" style="endArrow=classic;html=1;rounded=0;labelBackgroundColor=#FFFFFF;fontSize=21;fontColor=#000000;elbow=vertical;exitX=1.002;exitY=0.622;exitDx=0;exitDy=0;exitPerimeter=0;" parent="1" source="PkTBSmSXAkz1ON-lmvk_-99" edge="1">
          <mxGeometry width="50" height="50" relative="1" as="geometry">
            <mxPoint x="795" y="979" as="sourcePoint" />
            <mxPoint x="1080" y="980" as="targetPoint" />
          </mxGeometry>
        </mxCell>
        <mxCell id="PkTBSmSXAkz1ON-lmvk_-126" value="&amp;nbsp; `N_7, K_2,\gamma_{\n\ew}`&amp;nbsp;&amp;nbsp;" style="edgeLabel;html=1;align=center;verticalAlign=middle;resizable=0;points=[];fontSize=21;fontColor=#000000;labelBorderColor=default;labelBackgroundColor=#FFB366;" parent="PkTBSmSXAkz1ON-lmvk_-113" vertex="1" connectable="0">
          <mxGeometry x="-0.1519" y="-1" relative="1" as="geometry">
            <mxPoint x="23" y="-1" as="offset" />
          </mxGeometry>
        </mxCell>
        <mxCell id="PkTBSmSXAkz1ON-lmvk_-117" value="" style="endArrow=classic;html=1;rounded=0;labelBackgroundColor=#FFFFFF;fontSize=21;fontColor=#000000;elbow=vertical;exitX=0;exitY=0.652;exitDx=0;exitDy=0;exitPerimeter=0;" parent="1" source="PkTBSmSXAkz1ON-lmvk_-99" edge="1">
          <mxGeometry width="50" height="50" relative="1" as="geometry">
            <mxPoint x="270" y="990" as="sourcePoint" />
            <mxPoint x="60" y="990" as="targetPoint" />
            <Array as="points">
              <mxPoint x="190" y="990" />
            </Array>
          </mxGeometry>
        </mxCell>
        <mxCell id="PkTBSmSXAkz1ON-lmvk_-128" value="&amp;nbsp; `N_6, K_1,\beta_{\n\ew}`&amp;nbsp;&amp;nbsp;" style="edgeLabel;html=1;align=center;verticalAlign=middle;resizable=0;points=[];fontSize=21;fontColor=#000000;labelBorderColor=default;labelBackgroundColor=#FFB366;" parent="PkTBSmSXAkz1ON-lmvk_-117" vertex="1" connectable="0">
          <mxGeometry x="-0.1376" relative="1" as="geometry">
            <mxPoint x="-4" as="offset" />
          </mxGeometry>
        </mxCell>
        <mxCell id="PkTBSmSXAkz1ON-lmvk_-129" value="1" style="text;html=1;align=center;verticalAlign=middle;resizable=0;points=[];autosize=1;strokeColor=none;fillColor=none;fontSize=21;fontColor=#000000;labelBorderColor=default;labelBackgroundColor=#4FFF2B;" parent="1" vertex="1">
          <mxGeometry x="-230" y="-30" width="40" height="40" as="geometry" />
        </mxCell>
        <mxCell id="PkTBSmSXAkz1ON-lmvk_-130" value="2" style="text;html=1;align=center;verticalAlign=middle;resizable=0;points=[];autosize=1;strokeColor=none;fillColor=none;fontSize=21;fontColor=#000000;labelBorderColor=default;labelBackgroundColor=#4FFF2B;" parent="1" vertex="1">
          <mxGeometry x="840" y="-10" width="40" height="40" as="geometry" />
        </mxCell>
        <mxCell id="PkTBSmSXAkz1ON-lmvk_-131" value="3" style="text;html=1;align=center;verticalAlign=middle;resizable=0;points=[];autosize=1;strokeColor=none;fillColor=none;fontSize=21;fontColor=#000000;labelBorderColor=default;labelBackgroundColor=#4FFF2B;" parent="1" vertex="1">
          <mxGeometry x="-230" y="250" width="40" height="40" as="geometry" />
        </mxCell>
        <mxCell id="PkTBSmSXAkz1ON-lmvk_-132" value="4" style="text;html=1;align=center;verticalAlign=middle;resizable=0;points=[];autosize=1;strokeColor=none;fillColor=none;fontSize=21;fontColor=#000000;labelBorderColor=default;labelBackgroundColor=#4FFF2B;" parent="1" vertex="1">
          <mxGeometry x="260" y="300" width="40" height="40" as="geometry" />
        </mxCell>
        <mxCell id="PkTBSmSXAkz1ON-lmvk_-133" value="5" style="text;html=1;align=center;verticalAlign=middle;resizable=0;points=[];autosize=1;strokeColor=none;fillColor=none;fontSize=21;fontColor=#000000;labelBorderColor=default;labelBackgroundColor=#4FFF2B;" parent="1" vertex="1">
          <mxGeometry x="1200" y="540" width="40" height="40" as="geometry" />
        </mxCell>
        <mxCell id="PkTBSmSXAkz1ON-lmvk_-134" value="6" style="text;html=1;align=center;verticalAlign=middle;resizable=0;points=[];autosize=1;strokeColor=none;fillColor=none;fontSize=21;fontColor=#000000;labelBorderColor=default;labelBackgroundColor=#4FFF2B;" parent="1" vertex="1">
          <mxGeometry x="225" y="770" width="40" height="40" as="geometry" />
        </mxCell>
        <mxCell id="PkTBSmSXAkz1ON-lmvk_-135" value="7" style="text;html=1;align=center;verticalAlign=middle;resizable=0;points=[];autosize=1;strokeColor=none;fillColor=none;fontSize=21;fontColor=#000000;labelBorderColor=default;labelBackgroundColor=#4FFF2B;" parent="1" vertex="1">
          <mxGeometry x="-350" y="1090" width="40" height="40" as="geometry" />
        </mxCell>
        <mxCell id="PkTBSmSXAkz1ON-lmvk_-136" value="8" style="text;html=1;align=center;verticalAlign=middle;resizable=0;points=[];autosize=1;strokeColor=none;fillColor=none;fontSize=21;fontColor=#000000;labelBorderColor=default;labelBackgroundColor=#4FFF2B;" parent="1" vertex="1">
          <mxGeometry x="1330" y="1070" width="40" height="40" as="geometry" />
        </mxCell>
        <mxCell id="PkTBSmSXAkz1ON-lmvk_-137" value="`M_{UG}^1`" style="text;html=1;align=center;verticalAlign=middle;resizable=0;points=[];autosize=1;strokeColor=none;fillColor=none;fontSize=21;fontColor=#000000;" parent="1" vertex="1">
          <mxGeometry x="200" y="-20" width="130" height="40" as="geometry" />
        </mxCell>
        <mxCell id="PkTBSmSXAkz1ON-lmvk_-138" value="`M_{GU}^2`" style="text;html=1;align=center;verticalAlign=middle;resizable=0;points=[];autosize=1;strokeColor=none;fillColor=none;fontSize=21;fontColor=#000000;" parent="1" vertex="1">
          <mxGeometry x="175" y="110" width="130" height="40" as="geometry" />
        </mxCell>
        <mxCell id="PkTBSmSXAkz1ON-lmvk_-139" value="`M_{UG}^3`" style="text;html=1;align=center;verticalAlign=middle;resizable=0;points=[];autosize=1;strokeColor=none;fillColor=none;fontSize=21;fontColor=#000000;" parent="1" vertex="1">
          <mxGeometry x="265" y="205" width="130" height="40" as="geometry" />
        </mxCell>
        <mxCell id="PkTBSmSXAkz1ON-lmvk_-140" value="`M_{GI]^4`" style="text;html=1;align=center;verticalAlign=middle;resizable=0;points=[];autosize=1;strokeColor=none;fillColor=none;fontSize=21;fontColor=#000000;" parent="1" vertex="1">
          <mxGeometry x="770" y="340" width="120" height="40" as="geometry" />
        </mxCell>
        <mxCell id="PkTBSmSXAkz1ON-lmvk_-141" value="`M_{IG}^5`" style="text;html=1;align=center;verticalAlign=middle;resizable=0;points=[];autosize=1;strokeColor=none;fillColor=none;fontSize=21;fontColor=#000000;" parent="1" vertex="1">
          <mxGeometry x="540" y="640" width="120" height="40" as="geometry" />
        </mxCell>
        <mxCell id="PkTBSmSXAkz1ON-lmvk_-142" value="`M_{GU}^6`" style="text;html=1;align=center;verticalAlign=middle;resizable=0;points=[];autosize=1;strokeColor=none;fillColor=none;fontSize=21;fontColor=#000000;" parent="1" vertex="1">
          <mxGeometry x="120" y="930" width="130" height="40" as="geometry" />
        </mxCell>
        <mxCell id="PkTBSmSXAkz1ON-lmvk_-143" value="`M_{GI}^7`" style="text;html=1;align=center;verticalAlign=middle;resizable=0;points=[];autosize=1;strokeColor=none;fillColor=none;fontSize=21;fontColor=#000000;" parent="1" vertex="1">
          <mxGeometry x="860" y="920" width="120" height="40" as="geometry" />
        </mxCell>
        <mxCell id="MqGZ7LyOaa_pij7iiM5n-1" value="" style="shape=curlyBracket;whiteSpace=wrap;html=1;rounded=1;labelPosition=left;verticalLabelPosition=middle;align=right;verticalAlign=middle;size=0.5;" parent="1" vertex="1">
          <mxGeometry x="360" y="350" width="20" height="230" as="geometry" />
        </mxCell>
        <mxCell id="MqGZ7LyOaa_pij7iiM5n-2" value="Check" style="text;html=1;align=center;verticalAlign=middle;resizable=0;points=[];autosize=1;strokeColor=none;fillColor=none;fontSize=20;" parent="1" vertex="1">
          <mxGeometry x="290" y="445" width="80" height="40" as="geometry" />
        </mxCell>
        <mxCell id="MqGZ7LyOaa_pij7iiM5n-3" value="" style="shape=curlyBracket;whiteSpace=wrap;html=1;rounded=1;labelPosition=left;verticalLabelPosition=middle;align=right;verticalAlign=middle;fontSize=20;" parent="1" vertex="1">
          <mxGeometry x="330" y="800" width="20" height="130" as="geometry" />
        </mxCell>
        <mxCell id="MqGZ7LyOaa_pij7iiM5n-4" value="Check" style="text;html=1;align=center;verticalAlign=middle;resizable=0;points=[];autosize=1;strokeColor=none;fillColor=none;fontSize=20;" parent="1" vertex="1">
          <mxGeometry x="260" y="845" width="80" height="40" as="geometry" />
        </mxCell>
        <mxCell id="7hsylMHpOGJ5yZ-2AxNH-7" value="&lt;font style=&quot;font-size: 18px;&quot;&gt;Check&lt;/font&gt;" style="text;html=1;strokeColor=none;fillColor=none;align=center;verticalAlign=middle;whiteSpace=wrap;rounded=0;" parent="1" vertex="1">
          <mxGeometry x="390" y="40" width="60" height="30" as="geometry" />
        </mxCell>
        <mxCell id="7hsylMHpOGJ5yZ-2AxNH-8" value="" style="shape=curlyBracket;whiteSpace=wrap;html=1;rounded=1;labelPosition=left;verticalLabelPosition=middle;align=right;verticalAlign=middle;size=0.5;" parent="1" vertex="1">
          <mxGeometry x="450" y="35" width="20" height="45" as="geometry" />
        </mxCell>
        <mxCell id="O-h8ShEMVc500tHlh3XC-1" value="&lt;font style=&quot;font-size: 19px;&quot;&gt;&amp;nbsp; `N_3,VG,VH,r_1,r_2,r_3,f_u`&amp;nbsp; &amp;nbsp;&lt;/font&gt;" style="text;html=1;align=center;verticalAlign=middle;resizable=0;points=[];autosize=1;strokeColor=none;fillColor=none;labelBackgroundColor=#FFB366;labelBorderColor=default;spacingLeft=2;spacingTop=0;" parent="1" vertex="1">
          <mxGeometry x="235" y="245" width="290" height="30" as="geometry" />
        </mxCell>
        <mxCell id="O-h8ShEMVc500tHlh3XC-4" value="" style="endArrow=classic;html=1;rounded=0;" parent="1" edge="1">
          <mxGeometry width="50" height="50" relative="1" as="geometry">
            <mxPoint x="514" y="260" as="sourcePoint" />
            <mxPoint x="580" y="260" as="targetPoint" />
          </mxGeometry>
        </mxCell>
        <mxCell id="O-h8ShEMVc500tHlh3XC-5" value="" style="endArrow=none;html=1;rounded=0;" parent="1" edge="1">
          <mxGeometry width="50" height="50" relative="1" as="geometry">
            <mxPoint x="208" y="262" as="sourcePoint" />
            <mxPoint x="247" y="262" as="targetPoint" />
          </mxGeometry>
        </mxCell>
      </root>
    </mxGraphModel>
  </diagram>
</mxfile>
